# xmcd
#
# Track frame offsets:
#	150
#	12412
#	28748
#	41828
#	62486
#	76045
#	86885
#	99871
#	108612
#	128314
#	141469
#	167935
#	183181
#	199380
#	210875
#	228992
#
# Disc length: 3152 seconds
#
# Revision: 1
# Processed by: cddbd v1.5.2PL0 Copyright (c) Steve Scherf et al.
# Submitted via: audiograbber 1.83.01
#
DISCID=d00c4e10
DTITLE=Hermann Lammers Meyer - »1961 - A Love Song« (The Fiddle-House-Session, 
DTITLE=Nashville/Tn.)
DYEAR=2007
DGENRE=Country
TTITLE0=Do What You Do Do Well
TTITLE1=Just Between The Two Of Us (with Laney Hicks)
TTITLE2=What Goes On
TTITLE3=1961 - A Love Song (with Lois Johnson)
TTITLE4=Mr. Record Man (with Laney Hicks)
TTITLE5=Never Ending Song Of Love
TTITLE6=Fastest Growing Heartache In The West
TTITLE7=Nashville Cats Boogie (with Becky Hobbs)
TTITLE8=Alley Of Shame
TTITLE9=Days
TTITLE10=Neon Leon
TTITLE11=The Radio Song
TTITLE12=15 Years Ago (with Dusty Owens)
TTITLE13=Run To The Door
TTITLE14=So What Am I Doin' (with Annie B.)
TTITLE15=Emslaendler (Nashville Cats-All-Star-Instrumental) (bonus track)
EXTD=
EXTT0=
EXTT1=
EXTT2=
EXTT3=
EXTT4=
EXTT5=
EXTT6=
EXTT7=
EXTT8=
EXTT9=
EXTT10=
EXTT11=
EXTT12=
EXTT13=
EXTT14=
EXTT15=
PLAYORDER=
